<svg xmlns="http://www.w3.org/2000/svg" viewBox="-50.1 223 240 116"><path d="M23.2 332.9h-7.8c-2.1 0-3.8-1.7-3.8-3.8v-5c0-.3-.5-1-.9-1.2l-2.2-.9c-.5-.3-1.4-.2-1.6.2l-3.6 3.6c-1.6 1.6-4 1.6-5.5 0l-5.5-5.5c-1.6-1.6-1.6-4 0-5.5l3.6-3.6c.3-.3.3-1 .2-1.4l-.9-2.4c-.2-.5-.7-1-1.2-1h-5c-2.1 0-3.8-1.7-3.8-3.8v-7.8c0-2.1 1.7-3.8 3.8-3.8h5c.3 0 1-.5 1.2-.9l.9-2.3c.3-.5.2-1.4-.2-1.6l-3.6-3.6c-1.6-1.6-1.6-4 0-5.5l5.5-5.5c1.6-1.6 4-1.6 5.5 0l3.6 3.6c.3.3 1 .3 1.4.2l2.8-1h.2c.5-.2.9-.7.9-1v-5c0-2.1 1.7-3.8 3.8-3.8h7.8c2.1 0 3.8 1.7 3.8 3.8v5c0 .3.5 1 .9 1.2l2.3.9c.5.3 1.4.2 1.6-.2l3.6-3.6c1.6-1.6 4-1.6 5.5 0l5.5 5.5c1.6 1.6 1.6 4 0 5.5l-3.6 3.6c-.3.3-.3 1-.2 1.4l.8 2.3c.2.5.7 1 1.2 1h5c1 0 2.1.5 2.8 1.4.5.9.9 1.7.7 2.8v7.6c0 2.1-1.7 3.8-3.8 3.8h-5c-.3 0-1 .5-1.2.9l-.9 2.3c-.3.5-.2 1.4.2 1.6l3.6 3.6c1.6 1.6 1.6 4 0 5.5L41 326c-1.6 1.6-4 1.6-5.5 0l-3.6-3.6c-.3-.3-1-.3-1.4-.2l-2.4.9c-.5.2-1 .7-1 1.2v5c-.1 1.9-1.8 3.6-3.9 3.6zM7.6 318.4c.7 0 1.4.2 2.1.5l2.1.9c1.7.5 3.1 2.6 3.1 4.3v5c0 .2.2.3.3.3H23c.2 0 .3-.2.3-.3v-5c0-2.1 1.4-3.8 3.3-4.5l2.1-.9c1.6-.9 4-.5 5.4.9l3.6 3.6c.2.2.5.2.7 0l5.5-5.5c.2-.2.2-.5 0-.7l-3.6-3.6c-1.4-1.4-1.7-3.6-.9-5.5l.9-2.1c.5-1.7 2.6-3.1 4.3-3.1h5c.2 0 .3-.2.3-.3v-8.3h-5c-2.1 0-3.8-1.4-4.5-3.3l-.9-2.1c-.9-1.6-.5-4 .9-5.4l3.6-3.6c.2-.2.2-.5 0-.7l-5.5-5.5c-.2-.2-.5-.2-.7 0l-3.6 3.6c-1.4 1.4-3.6 1.7-5.5.9l-2.1-.9c-1.6-.5-3.1-2.3-3.1-4.3v-5c0-.2-.2-.3-.3-.3h-7.8c-.2 0-.3.2-.3.3v5c0 1.9-1.4 3.8-3.3 4.3l-2.6 1c-1.6.9-4 .5-5.4-.9l-3.6-3.6c-.2-.2-.5-.2-.7 0l-5.5 5.5c-.2.2-.2.5 0 .7l3.6 3.6c1.4 1.4 1.7 3.6.9 5.5l-.9 2.1c-.5 1.7-2.6 3.1-4.3 3.1h-5c-.2 0-.3.2-.3.3v7.8c0 .2.2.3.3.3h5c2.1 0 3.8 1.4 4.5 3.3l.9 2.1c.9 1.6.5 4-.9 5.4l-3.6 3.6c-.2.2-.2.5 0 .7l5.5 5.5c.2.2.5.2.7 0l3.6-3.6c1.2-.6 2.4-1.1 3.6-1.1z"/><path fill="#FFD800" d="M50.2 292.4h-5c-1.2 0-2.4-.9-2.8-2.1l-.9-2.3c-.5-1-.3-2.6.5-3.5l3.6-3.6c.9-.9.9-2.3 0-3.1l-5.5-5.5c-.9-.9-2.3-.9-3.1 0l-3.6 3.6c-.9.9-2.4 1-3.5.5l-2.3-.9c-1-.3-2.1-1.6-2.1-2.8v-5c0-1.2-1-2.1-2.1-2.1h-7.8c-1.2 0-2.1 1-2.1 2.1v5c0 1.2-.9 2.4-2.1 2.8l-2.6 1c-1 .5-2.6.3-3.5-.5l-3.6-3.6c-.9-.9-2.3-.9-3.1 0l-5.5 5.5c-.9.9-.9 2.3 0 3.1l3.6 3.6c.9.9 1 2.4.5 3.5l-.9 2.3c-.3 1-1.7 2.1-2.8 2.1h-5c-1.2 0-2.1 1-2.1 2.1v7.8c0 1.2 1 2.1 2.1 2.1h5c1.2 0 2.4.9 2.8 2.1l.9 2.3c.5 1 .3 2.6-.5 3.5l-3.6 3.6c-.9.9-.9 2.3 0 3.1l5.5 5.5c.9.9 2.3.9 3.1 0l3.6-3.6c.9-.9 2.4-1 3.5-.5l2.3.9c1 .3 2.1 1.7 2.1 2.8v5c0 1.2 1 2.1 2.1 2.1h7.8c1.2 0 2.1-1 2.1-2.1v-5c0-1.2.9-2.4 2.1-2.8l2.3-.9c1-.5 2.6-.3 3.5.5l3.6 3.6c.9.9 2.3.9 3.1 0l5.5-5.5c.9-.9.9-2.3 0-3.1l-3.6-3.6c-.9-.9-1-2.4-.5-3.5l.9-2.3c.3-1 1.7-2.1 2.8-2.1h5c1.2 0 2.1-1 2.1-2.1v-7.8c.3-1.1-.7-2.2-1.8-2.2z"/><path d="M23.2 332.9h-7.8c-2.1 0-3.8-1.7-3.8-3.8v-5c0-.3-.5-1-.9-1.2l-2.2-.9c-.5-.3-1.4-.2-1.6.2l-3.6 3.6c-1.6 1.6-4 1.6-5.5 0l-5.5-5.5c-1.6-1.6-1.6-4 0-5.5l3.6-3.6c.3-.3.3-1 .2-1.4l-.9-2.4c-.2-.5-.7-1-1.2-1h-5c-2.1 0-3.8-1.7-3.8-3.8v-7.8c0-2.1 1.7-3.8 3.8-3.8h5c.3 0 1-.5 1.2-.9l.9-2.3c.3-.5.2-1.4-.2-1.6l-3.6-3.6c-1.6-1.6-1.6-4 0-5.5l5.5-5.5c1.6-1.6 4-1.6 5.5 0l3.6 3.6c.3.3 1 .3 1.4.2l2.8-1h.2c.5-.2.9-.7.9-1v-5c0-2.1 1.7-3.8 3.8-3.8h7.8c2.1 0 3.8 1.7 3.8 3.8v5c0 .3.5 1 .9 1.2l2.3.9c.5.3 1.4.2 1.6-.2l3.6-3.6c1.6-1.6 4-1.6 5.5 0l5.5 5.5c1.6 1.6 1.6 4 0 5.5l-3.6 3.6c-.3.3-.3 1-.2 1.4l.8 2.3c.2.5.7 1 1.2 1h5c1 0 2.1.5 2.8 1.4.5.9.9 1.7.7 2.8v7.6c0 2.1-1.7 3.8-3.8 3.8h-5c-.3 0-1 .5-1.2.9l-.9 2.3c-.3.5-.2 1.4.2 1.6l3.6 3.6c1.6 1.6 1.6 4 0 5.5L41 326c-1.6 1.6-4 1.6-5.5 0l-3.6-3.6c-.3-.3-1-.3-1.4-.2l-2.4.9c-.5.2-1 .7-1 1.2v5c-.1 1.9-1.8 3.6-3.9 3.6zM7.6 318.4c.7 0 1.4.2 2.1.5l2.1.9c1.7.5 3.1 2.6 3.1 4.3v5c0 .2.2.3.3.3H23c.2 0 .3-.2.3-.3v-5c0-2.1 1.4-3.8 3.3-4.5l2.1-.9c1.6-.9 4-.5 5.4.9l3.6 3.6c.2.2.5.2.7 0l5.5-5.5c.2-.2.2-.5 0-.7l-3.6-3.6c-1.4-1.4-1.7-3.6-.9-5.5l.9-2.1c.5-1.7 2.6-3.1 4.3-3.1h5c.2 0 .3-.2.3-.3v-8.3h-5c-2.1 0-3.8-1.4-4.5-3.3l-.9-2.1c-.9-1.6-.5-4 .9-5.4l3.6-3.6c.2-.2.2-.5 0-.7l-5.5-5.5c-.2-.2-.5-.2-.7 0l-3.6 3.6c-1.4 1.4-3.6 1.7-5.5.9l-2.1-.9c-1.6-.5-3.1-2.3-3.1-4.3v-5c0-.2-.2-.3-.3-.3h-7.8c-.2 0-.3.2-.3.3v5c0 1.9-1.4 3.8-3.3 4.3l-2.6 1c-1.6.9-4 .5-5.4-.9l-3.6-3.6c-.2-.2-.5-.2-.7 0l-5.5 5.5c-.2.2-.2.5 0 .7l3.6 3.6c1.4 1.4 1.7 3.6.9 5.5l-.9 2.1c-.5 1.7-2.6 3.1-4.3 3.1h-5c-.2 0-.3.2-.3.3v7.8c0 .2.2.3.3.3h5c2.1 0 3.8 1.4 4.5 3.3l.9 2.1c.9 1.6.5 4-.9 5.4l-3.6 3.6c-.2.2-.2.5 0 .7l5.5 5.5c.2.2.5.2.7 0l3.6-3.6c1.2-.6 2.4-1.1 3.6-1.1z"/><circle fill="#FFF" cx="19.4" cy="298.5" r="10.4"/><path d="M19.4 310.6c-6.8 0-12.1-5.4-12.1-12.1s5.4-12.1 12.1-12.1 12.1 5.4 12.1 12.1-5.4 12.1-12.1 12.1zm0-20.8c-4.8 0-8.7 3.8-8.7 8.7s3.8 8.7 8.7 8.7 8.7-3.8 8.7-8.7-3.9-8.7-8.7-8.7z"/><path fill="#FFF" d="M102 337.1H73.8l2.7-29.6H99z"/><path d="M102 338.8H73.8c-.5 0-.9-.2-1.2-.5-.3-.3-.5-.9-.5-1.4l2.8-29.6c0-.9.9-1.6 1.7-1.6H99c.9 0 1.6.7 1.7 1.6l2.9 29.6c0 .5-.2 1-.5 1.4-.1.4-.6.5-1.1.5zm-26.3-3.4h24.4l-2.6-26.1H78.1l-2.4 26.1z"/><path d="M115 339H60.6c-1 0-1.7-.7-1.7-1.7s.7-1.7 1.7-1.7H115c1 0 1.7.7 1.7 1.7s-.7 1.7-1.7 1.7z"/><path fill="#FFF" d="M20.1 224.7h133v89.7h-133z"/><path d="M153.1 316.1h-133c-1 0-1.7-.7-1.7-1.7v-89.7c0-1 .7-1.7 1.7-1.7h133c1 0 1.7.7 1.7 1.7v89.7c0 1.1-.7 1.7-1.7 1.7zm-131.3-3.4h129.5v-86.2H21.8v86.2z"/><path fill="#FFF" d="M145.3 306.6H27.7v-74.3h117.7z"/><path d="M145.3 308.4H27.7c-1 0-1.7-.7-1.7-1.7v-74.3c0-1 .7-1.7 1.7-1.7h117.7c.5 0 .9.2 1.2.5.3.3.5.7.5 1.2l-.2 74.3c.1 1-.6 1.7-1.6 1.7zm-115.9-3.5h114.1l.2-70.8H29.4v70.8z"/><path fill="#C3C3C2" d="M45.7 271.3h6.2v26.1h-6.2z"/><path d="M51.9 299.2h-6.2c-1 0-1.7-.7-1.7-1.7v-26.1c0-1 .7-1.7 1.7-1.7h6.2c1 0 1.7.7 1.7 1.7v26.1c.1 1-.6 1.7-1.7 1.7zm-4.5-3.5h2.8V273h-2.8v22.7z"/><path fill="#C3C3C2" d="M57.8 253.6H64v44h-6.2z"/><path d="M64.1 299.4h-6.2c-1 0-1.7-.7-1.7-1.7v-44c0-1 .7-1.7 1.7-1.7h6.2c1 0 1.7.7 1.7 1.7v44c0 1-.7 1.7-1.7 1.7zm-4.5-3.5h2.8v-40.5h-2.8v40.5z"/><path fill="#C3C3C2" d="M69.6 265.4h6.2v31.9h-6.2z"/><path d="M75.8 299h-6.2c-1 0-1.7-.7-1.7-1.7v-31.9c0-1 .7-1.7 1.7-1.7h6.2c1 0 1.7.7 1.7 1.7v31.9c.1 1-.6 1.7-1.7 1.7zm-4.5-3.5h2.8v-28.4h-2.8v28.4zm46.3-17.6h-.2c-.9-.2-1.6-1-1.6-1.9l2.4-21.8-27.9 4.2c-.9.2-1.9-.5-1.9-1.4-.2-.9.5-1.9 1.4-1.9l30.1-4.5c.5 0 1 .2 1.4.5s.5.9.5 1.4l-2.6 24.1c-.1.6-.8 1.3-1.6 1.3z"/><path fill="#FFD800" d="M121.9 276.2c-1.7-4-6.4-5.9-10.6-4-4 1.7-5.9 6.4-4 10.6 1.7 4 6.4 5.9 10.6 4 4-2 5.9-6.7 4-10.6"/><path d="M114.6 289.1c-1.2 0-2.3-.2-3.5-.7-2.4-.9-4.3-2.8-5.4-5.2-1-2.4-1.2-5-.2-7.4.9-2.4 2.8-4.3 5.2-5.4 2.4-1 5-1.2 7.4-.2 2.4.9 4.3 2.8 5.4 5s1.2 5 .2 7.4c-.9 2.4-2.8 4.3-5 5.4-1.3 1-2.7 1.1-4.1 1.1zm0-15.9c-.9 0-1.7.2-2.6.5-1.6.7-2.8 1.9-3.3 3.5s-.5 3.3.2 4.8c.7 1.6 1.9 2.8 3.5 3.3s3.3.5 4.8-.2c1.6-.7 2.8-2.1 3.3-3.6.5-1.6.5-3.3-.2-4.7-.7-1.6-1.9-2.8-3.5-3.3-.6-.3-1.3-.3-2.2-.3z"/><path fill="#FFD800" d="M127.3 249c-1.7-4-6.4-5.9-10.6-4-4 1.7-5.9 6.4-4 10.6 1.7 4 6.4 5.9 10.6 4 4-2 5.9-6.6 4-10.6"/><path d="M120 262c-1.2 0-2.3-.2-3.5-.7-2.4-.9-4.3-2.8-5.4-5.2-1-2.4-1.2-5-.2-7.4.9-2.4 2.8-4.3 5.2-5.4 2.4-1 5-1.2 7.4-.2 2.4.9 4.3 2.8 5.4 5 2.3 4.7.2 10.6-4.8 12.8-1.3.9-2.7 1.1-4.1 1.1zm0-16c-.9 0-1.7.2-2.6.5-1.6.7-2.8 1.9-3.3 3.5s-.5 3.3.2 4.8 1.9 2.8 3.5 3.3 3.3.5 4.8-.2c3.1-1.6 4.7-5.2 3.1-8.3-.7-1.6-1.9-2.8-3.5-3.3-.7-.3-1.3-.3-2.2-.3z"/><path d="M120 262c-5.4 0-9.7-4.3-9.7-9.7s4.3-9.7 9.7-9.7 9.7 4.3 9.7 9.7-4.3 9.7-9.7 9.7zm0-16c-3.5 0-6.2 2.8-6.2 6.2s2.8 6.2 6.2 6.2 6.2-2.8 6.2-6.2-2.8-6.2-6.2-6.2z"/><circle fill="#FFD800" cx="90" cy="255.2" r="8"/><path d="M90 264.9c-5.4 0-9.7-4.3-9.7-9.7 0-5.4 4.3-9.7 9.7-9.7s9.7 4.3 9.7 9.7c0 5.4-4.3 9.7-9.7 9.7zm0-15.9c-3.5 0-6.2 2.8-6.2 6.2 0 3.5 2.8 6.2 6.2 6.2s6.2-2.8 6.2-6.2c.1-3.5-2.7-6.2-6.2-6.2z"/></svg>