<svg id="Illos" xmlns="http://www.w3.org/2000/svg" width="240" height="116" viewBox="0 0 240 116"><style>.st0{fill:#c3c3c2}.st1{fill:#ffd800}.st2{fill:#fff}.st3{fill:url(#)}.st4{fill:#ffd800;stroke:#000;stroke-width:2;stroke-linecap:round;stroke-linejoin:round;stroke-miterlimit:10}</style><path d="M31.16 105.387a1.727 1.727 0 0 1-1.227-2.945L89.65 42.237a1.733 1.733 0 0 1 2.09-.282l57.51 33.078 58.293-66.32a1.729 1.729 0 1 1 2.596 2.283l-59.227 67.38a1.729 1.729 0 0 1-2.16.36L91.17 45.615l-58.782 59.26c-.34.34-.784.51-1.228.51z"/><path class="st0" d="M31.16 113.272a9.617 9.617 0 0 0 9.617-9.617c0-5.312-4.305-9.614-9.616-9.614s-9.615 4.303-9.615 9.615c0 5.31 4.305 9.617 9.616 9.617"/><path d="M31.16 115c-6.254 0-11.343-5.09-11.343-11.344s5.09-11.343 11.343-11.343c6.255 0 11.344 5.09 11.344 11.343 0 6.255-5.09 11.344-11.344 11.344zm0-19.23c-4.348 0-7.886 3.538-7.886 7.886 0 4.35 3.538 7.887 7.886 7.887 4.35 0 7.887-3.538 7.887-7.887 0-4.348-3.538-7.886-7.887-7.886z"/><path d="M31.16 115c-6.254 0-11.343-5.09-11.343-11.344s5.09-11.343 11.343-11.343c6.255 0 11.344 5.09 11.344 11.343 0 6.255-5.09 11.344-11.344 11.344zm0-19.23c-4.348 0-7.886 3.538-7.886 7.886 0 4.35 3.538 7.887 7.886 7.887 4.35 0 7.887-3.538 7.887-7.887 0-4.348-3.538-7.886-7.887-7.886z"/><path class="st1" d="M90.876 53.067c5.31 0 9.616-4.306 9.616-9.617 0-5.312-4.305-9.614-9.616-9.614-5.31 0-9.616 4.302-9.616 9.614 0 5.31 4.306 9.617 9.616 9.617"/><path d="M90.875 54.796c-6.254 0-11.343-5.09-11.343-11.346 0-6.254 5.09-11.343 11.343-11.343 6.255 0 11.344 5.09 11.344 11.343 0 6.257-5.09 11.346-11.345 11.346zm0-19.23c-4.348 0-7.886 3.537-7.886 7.885 0 4.35 3.537 7.89 7.885 7.89 4.35 0 7.887-3.54 7.887-7.89 0-4.348-3.537-7.885-7.887-7.885z"/><path d="M90.875 54.796c-6.254 0-11.343-5.09-11.343-11.346 0-6.254 5.09-11.343 11.343-11.343 6.255 0 11.344 5.09 11.344 11.343 0 6.257-5.09 11.346-11.345 11.346zm0-19.23c-4.348 0-7.886 3.537-7.886 7.885 0 4.35 3.537 7.89 7.885 7.89 4.35 0 7.887-3.54 7.887-7.89 0-4.348-3.537-7.885-7.887-7.885z"/><path class="st1" d="M149.613 86.7c5.31 0 9.616-4.306 9.616-9.617 0-5.312-4.306-9.614-9.617-9.614s-9.616 4.3-9.616 9.613c0 5.31 4.305 9.617 9.616 9.617"/><path d="M149.614 88.428c-6.255 0-11.344-5.09-11.344-11.346 0-6.254 5.09-11.34 11.344-11.34s11.343 5.088 11.343 11.342c0 6.255-5.09 11.344-11.343 11.344zm0-19.23c-4.35 0-7.887 3.536-7.887 7.884 0 4.35 3.538 7.89 7.887 7.89 4.348 0 7.886-3.54 7.886-7.888 0-4.35-3.538-7.886-7.886-7.886z"/><path d="M149.614 88.428c-6.255 0-11.344-5.09-11.344-11.346 0-6.254 5.09-11.34 11.344-11.34s11.343 5.088 11.343 11.342c0 6.255-5.09 11.344-11.343 11.344zm0-19.23c-4.35 0-7.887 3.536-7.887 7.884 0 4.35 3.538 7.89 7.887 7.89 4.348 0 7.886-3.54 7.886-7.888 0-4.35-3.538-7.886-7.886-7.886z"/><path class="st2" d="M208.84 19.96c5.31 0 9.616-4.307 9.616-9.618 0-5.312-4.305-9.614-9.616-9.614-5.31 0-9.616 4.302-9.616 9.614 0 5.312 4.305 9.617 9.616 9.617"/><path d="M208.84 21.69c-6.255 0-11.344-5.09-11.344-11.347C197.496 4.09 202.586-1 208.84-1s11.343 5.09 11.343 11.343c0 6.257-5.09 11.346-11.343 11.346zm0-19.233c-4.35 0-7.887 3.538-7.887 7.886 0 4.35 3.538 7.89 7.887 7.89 4.348 0 7.886-3.54 7.886-7.89 0-4.348-3.538-7.886-7.886-7.886z"/><circle class="st0" cx="208.84" cy="10.344" r="9.615"/><path d="M208.84 21.69c-6.255 0-11.344-5.09-11.344-11.347C197.496 4.09 202.586-1 208.84-1s11.343 5.09 11.343 11.343c0 6.257-5.09 11.346-11.343 11.346zm0-19.233c-4.35 0-7.887 3.538-7.887 7.886 0 4.35 3.538 7.89 7.887 7.89 4.348 0 7.886-3.54 7.886-7.89 0-4.348-3.538-7.886-7.886-7.886zm-29.124 76.518a1.727 1.727 0 0 1-1.728-1.728v-5.185a1.727 1.727 0 1 1 3.456 0v5.185c0 .955-.773 1.728-1.728 1.728zm0-19.012a1.727 1.727 0 0 1-1.728-1.728V53.05a1.727 1.727 0 1 1 3.456 0v5.185c0 .955-.773 1.728-1.728 1.728zm0-19.012a1.726 1.726 0 0 1-1.728-1.727v-5.185a1.727 1.727 0 1 1 3.456 0v5.185c0 .955-.773 1.728-1.728 1.728zm0-19.012a1.727 1.727 0 0 1-1.728-1.728v-5.185a1.727 1.727 0 1 1 3.456 0v5.185c0 .955-.773 1.728-1.728 1.728zm-8.57-10.443h-5.185a1.727 1.727 0 1 1 .001-3.456h5.186a1.726 1.726 0 1 1 0 3.455zm-19.012 0h-5.185a1.728 1.728 0 1 1 0-3.456h5.184a1.726 1.726 0 1 1 0 3.455zm-19.012 0h-5.185a1.727 1.727 0 1 1-.001-3.456h5.185a1.726 1.726 0 1 1 0 3.455zm-19.013 0h-5.186a1.727 1.727 0 1 1 0-3.456h5.185a1.727 1.727 0 1 1-.001 3.455zm-19.013 0h-5.185a1.727 1.727 0 1 1 0-3.456h5.185a1.726 1.726 0 1 1 0 3.455zm54.992 94.131h-5.185a1.728 1.728 0 1 1 0-3.458h5.185a1.728 1.728 0 0 1 0 3.457zm-19.012 0h-5.185a1.728 1.728 0 1 1 .001-3.458h5.186a1.728 1.728 0 0 1 0 3.457zm-19.012 0h-5.185a1.728 1.728 0 1 1 0-3.458h5.184a1.728 1.728 0 0 1 0 3.457zm-19.013-.002h-5.184a1.727 1.727 0 1 1 0-3.456h5.185a1.727 1.727 0 1 1 0 3.455zm-19.01 0h-5.186a1.727 1.727 0 1 1 0-3.456h5.185a1.727 1.727 0 1 1-.001 3.455zm-13.756-5.257a1.727 1.727 0 0 1-1.728-1.728v-5.185a1.727 1.727 0 1 1 3.456 0v5.185c0 .955-.772 1.728-1.728 1.728zm0-19.013a1.727 1.727 0 0 1-1.728-1.728v-5.185a1.727 1.727 0 1 1 3.456 0v5.185c0 .955-.772 1.728-1.728 1.728zm0-19.012a1.727 1.727 0 0 1-1.728-1.728V55.43a1.727 1.727 0 1 1 3.456 0v5.185c0 .955-.772 1.728-1.728 1.728zm0-19.012a1.726 1.726 0 0 1-1.728-1.727v-5.185a1.727 1.727 0 1 1 3.456 0v5.185c0 .955-.772 1.728-1.728 1.728zm-.001-15.011a1.727 1.727 0 0 1-1.728-1.728V9.767c0-.955.773-1.728 1.728-1.728H77.11a1.727 1.727 0 1 1 0 3.455H62.014V26.59c0 .957-.773 1.73-1.73 1.73zm119.432 77.182H162.89a1.728 1.728 0 1 1 0-3.456h15.097v-15.1c0-.954.773-1.727 1.728-1.727s1.728.772 1.728 1.727v16.827c0 .955-.772 1.728-1.727 1.728z"/></svg>