<svg id="Illos" xmlns="http://www.w3.org/2000/svg" width="240" height="116" viewBox="0 0 240 116"><style>.st0{fill:#c3c3c2}.st1{fill:#ffd800}.st2{fill:#fff}.st3{fill:url(#)}.st4{fill:#ffd800;stroke:#000;stroke-width:2;stroke-linecap:round;stroke-linejoin:round;stroke-miterlimit:10}</style><path d="M181.784 116H143.24a1.725 1.725 0 1 1 0-3.45h38.544a1.725 1.725 0 1 1-.001 3.45zm51.2 0H194.44a1.725 1.725 0 1 1-.001-3.45h38.544a1.725 1.725 0 1 1-.001 3.45z"/><path class="st1" d="M194.604 28.492h-12.85l-2.39 6.753h-7.786l12.52-33.25h8.583l12.38 33.25h-8.065l-2.39-6.753zm-10.41-6.754h8.065l-3.987-11.49-4.08 11.49z"/><path d="M205.06 36.97h-8.064c-.73 0-1.382-.46-1.627-1.15l-1.985-5.604h-10.412l-1.984 5.605a1.726 1.726 0 0 1-1.628 1.15h-7.786a1.724 1.724 0 0 1-1.614-2.333L182.48 1.39c.258-.674.9-1.12 1.62-1.12h8.582c.72 0 1.365.448 1.616 1.124l12.38 33.248a1.72 1.72 0 0 1-1.615 2.325zm-6.846-3.45h4.363l-11.095-29.8h-6.19l-11.22 29.8h4.072l1.984-5.606c.244-.69.895-1.15 1.627-1.15h12.85c.73 0 1.382.46 1.627 1.15l1.982 5.605zm-5.955-10.056h-8.068a1.726 1.726 0 0 1-1.625-2.302l4.08-11.49a1.728 1.728 0 0 1 1.627-1.146h.007a1.726 1.726 0 0 1 1.624 1.16l3.986 11.488a1.727 1.727 0 0 1-1.631 2.291zm-5.624-3.45h3.2l-1.582-4.557-1.618 4.557zm-58.883 95.878a1.725 1.725 0 0 1-1.725-1.725V1.725a1.724 1.724 0 1 1 3.45 0v112.442c0 .954-.772 1.725-1.725 1.725z"/><path class="st0" d="M143.24 61.18h89.597v27.178H143.24z"/><path d="M232.837 90.083H143.24a1.725 1.725 0 0 1-1.725-1.725v-27.18a1.727 1.727 0 0 1 1.725-1.725l89.597.002c.953 0 1.725.772 1.725 1.725v27.178c0 .954-.772 1.725-1.725 1.725zm-87.872-3.45h86.147V62.905l-86.147-.002v23.73zm36.819 16.357H143.24a1.724 1.724 0 1 1 0-3.449h38.544a1.725 1.725 0 1 1-.001 3.451zm51.2 0H194.44a1.723 1.723 0 1 1-.001-3.449h38.544a1.725 1.725 0 1 1-.001 3.451zm-.147-53.01H143.24a1.725 1.725 0 0 1 0-3.451h89.597a1.725 1.725 0 0 1 0 3.449zM20.005 52.588c-.327 0-.656-.093-.95-.286L6.066 43.72a1.727 1.727 0 0 1 0-2.88l12.98-8.582a1.724 1.724 0 0 1 2.39.487 1.723 1.723 0 0 1-.486 2.39L10.145 42.28l10.813 7.145a1.727 1.727 0 0 1 .49 2.39 1.728 1.728 0 0 1-1.443.773zM49.83 85.895a1.72 1.72 0 0 1-.95-.286l-12.99-8.584a1.724 1.724 0 0 1-.001-2.878l12.98-8.585a1.724 1.724 0 1 1 1.903 2.877L39.97 75.588l10.812 7.145a1.727 1.727 0 0 1 .49 2.39 1.726 1.726 0 0 1-1.443.773zm35.693 0a1.723 1.723 0 0 1-.952-3.163l10.814-7.146L84.58 68.44a1.725 1.725 0 0 1 1.903-2.877l12.98 8.585a1.725 1.725 0 0 1 0 2.878l-12.99 8.583a1.726 1.726 0 0 1-.95.285zm16.04-33.307a1.723 1.723 0 0 1-.952-3.163l10.814-7.146-10.804-7.146a1.726 1.726 0 0 1 1.903-2.878l12.98 8.583a1.725 1.725 0 0 1 0 2.878l-12.99 8.582a1.715 1.715 0 0 1-.95.288zm-69.043.592h-3.98V28.335h3.98v9.746c1.133-1.475 3.02-2.092 4.77-2.092 4.12 0 6.11 2.95 6.11 6.623v10.57h-3.982v-9.883c0-2.06-.926-3.707-3.432-3.707-2.196 0-3.397 1.647-3.466 3.775v9.815zm20.762-16.712h3.466v3.534h-3.466v7.756c0 1.476.652 2.093 2.128 2.093.55 0 1.2-.102 1.373-.136v3.294c-.24.104-.995.378-2.437.378-3.088 0-5.01-1.854-5.01-4.977V40h-3.088v-3.534h.858c1.784 0 2.574-1.133 2.574-2.608v-2.505h3.603v5.113zm7.24 16.712V36.468h3.81v2.127c.96-1.716 3.053-2.607 4.94-2.607 2.197 0 4.12.995 5.01 2.95 1.305-2.195 3.26-2.95 5.423-2.95 3.02 0 5.903 1.92 5.903 6.35V53.18h-3.844V42.988c0-1.956-.995-3.432-3.226-3.432-2.093 0-3.466 1.647-3.466 3.706v9.918H71.16V42.988c0-1.922-.96-3.432-3.226-3.432-2.128 0-3.466 1.58-3.466 3.706v9.918h-3.946zm29.958 0V28.335h3.98V53.18h-3.98zM57.64 85.95a1.724 1.724 0 0 1-1.576-2.427L63.48 66.84a1.725 1.725 0 0 1 3.153 1.402l-7.417 16.683a1.723 1.723 0 0 1-1.577 1.024z"/><path class="st1" d="M79.022 85.88H64.89a1.725 1.725 0 1 1-.001-3.45H79.02a1.725 1.725 0 1 1 0 3.45z"/></svg>