<svg id="Illos" xmlns="http://www.w3.org/2000/svg" width="240" height="116" viewBox="0 0 240 116"><style>.st0{fill:#c3c3c2}.st1{fill:#ffd800}.st2{fill:#fff}.st3{fill:url(#)}.st4{fill:#ffd800;stroke:#000;stroke-width:2;stroke-linecap:round;stroke-linejoin:round;stroke-miterlimit:10}</style><path class="st0" d="M98.97 1.746h43.82v26.178H98.97z"/><path d="M142.79 29.668H98.972c-.964 0-1.745-.78-1.745-1.745V1.745c0-.965.78-1.745 1.745-1.745h43.818c.964 0 1.745.78 1.745 1.745v26.18c0 .963-.78 1.743-1.745 1.743zm-42.073-3.49h40.33V3.49h-40.33v22.69zM52.34 77.805H8.52c-.964 0-1.745-.78-1.745-1.745V49.88c0-.963.78-1.744 1.745-1.744h43.818c.964 0 1.745.78 1.745 1.745v26.18c0 .964-.78 1.745-1.744 1.745zm-42.075-3.49h40.33v-22.69h-40.33v22.69zm101.787 3.49h-43.82c-.963 0-1.744-.78-1.744-1.745V49.88c0-.963.78-1.744 1.745-1.744h43.818c.965 0 1.746.78 1.746 1.745v26.18c0 .964-.78 1.745-1.744 1.745zm-42.074-3.49h40.33v-22.69h-40.33v22.69zm101.787 3.49h-43.818c-.964 0-1.745-.78-1.745-1.745V49.88c0-.963.78-1.744 1.745-1.744h43.818c.964 0 1.745.78 1.745 1.745v26.18c0 .964-.78 1.745-1.745 1.745zm-42.073-3.49h40.33v-22.69h-40.33v22.69z"/><path class="st1" d="M127.947 88.077h43.82v26.178h-43.82z"/><path d="M171.765 116h-43.818c-.964 0-1.745-.78-1.745-1.745V88.077c0-.964.78-1.745 1.745-1.745h43.818c.964 0 1.745.78 1.745 1.745v26.18c0 .963-.78 1.743-1.745 1.743zm-42.073-3.49h40.33V89.82h-40.33v22.69zM231.48 77.805h-43.82c-.964 0-1.745-.78-1.745-1.745V49.88c0-.963.78-1.744 1.745-1.744h43.82c.964 0 1.745.78 1.745 1.745v26.18c0 .964-.78 1.745-1.745 1.745zm-42.075-3.49h40.33v-22.69h-40.33v22.69zm20.165-34.581H30.43c-.964 0-1.745-.78-1.745-1.745 0-.965.78-1.746 1.745-1.746h179.14a1.744 1.744 0 1 1 0 3.489z"/><path d="M149.857 89.82c-.964 0-1.745-.78-1.745-1.744V76.06a1.744 1.744 0 1 1 3.49 0v12.017c0 .964-.78 1.744-1.745 1.744zM30.43 51.37c-.964 0-1.745-.78-1.745-1.744V38.492a1.744 1.744 0 1 1 3.49 0v11.134c0 .964-.78 1.745-1.745 1.745zm59.714 0c-.964 0-1.745-.78-1.745-1.744V38.492a1.744 1.744 0 1 1 3.489 0v11.134a1.747 1.747 0 0 1-1.746 1.745zm59.713 0c-.964 0-1.745-.78-1.745-1.744V38.492a1.744 1.744 0 1 1 3.49 0v11.134c0 .964-.78 1.745-1.745 1.745zM120.88 38.933c-.964 0-1.745-.78-1.745-1.745v-9.265a1.744 1.744 0 1 1 3.49 0v9.265c0 .965-.78 1.745-1.745 1.745zm88.69 12.437c-.964 0-1.745-.78-1.745-1.744V38.492a1.744 1.744 0 1 1 3.49 0v11.134c0 .964-.78 1.745-1.745 1.745z"/></svg>