<svg xmlns="http://www.w3.org/2000/svg" viewBox="0 0 134.87 113.99"><defs><style>.cls-1,.cls-4,.cls-6,.cls-8{fill:none}.cls-2{fill:#fdda00}.cls-3{clip-path:url(#clip-path)}.cls-4,.cls-6{stroke:#231f20}.cls-4,.cls-6,.cls-8{stroke-width:3.44px}.cls-5{fill:#fff}.cls-6{stroke-linecap:round;stroke-linejoin:round}.cls-7{fill:#ffd800}.cls-8{stroke:#000}</style><clipPath id="clip-path"><path class="cls-1" d="M0 0h134.87v113.99H0z"/></clipPath></defs><title>Asset 20</title><g id="Layer_2" data-name="Layer 2"><g id="Layer_1-2" data-name="Layer 1"><path class="cls-2" d="M1.72 1.72h131.43v87.84H1.72z"/><g class="cls-3"><path class="cls-4" d="M1.72 1.72h131.43v87.84H1.72z"/></g><path class="cls-5" d="M9.43 9.34h115.89v72.78H9.43z"/><path class="cls-4" d="M9.43 9.34h115.89v72.78H9.43z"/><g class="cls-3"><path class="cls-6" d="M41.73 112.27h53.64"/></g><path class="cls-5" d="M57.19 89.75l-3.91 22.52h30.69l-3.68-22.52h-23.1z"/><g class="cls-3"><path class="cls-6" d="M57.19 89.75l-3.91 22.52h30.69l-3.68-22.52h-23.1z"/></g><path class="cls-6" d="M52.98 32.89l8.79 5.9-8.79 5.8M38.71 33.4l-5.18 10.59m6.61.43h7.39"/><g class="cls-3"><path class="cls-7" d="M75.94 57a.11.11 0 0 1 .06 0l3.81 5.1v.07L66.88 74.29a.05.05 0 0 1-.07 0L55.05 62.2v-.07l3.6-5.1a.11.11 0 0 1 .08 0z"/><path class="cls-8" d="M75.94 57a.11.11 0 0 1 .06 0l3.81 5.1v.07L66.88 74.29a.05.05 0 0 1-.07 0L55.05 62.2v-.07l3.6-5.1a.11.11 0 0 1 .08 0z"/><path class="cls-6" d="M89.75 29.59s8.59 10.49 0 17.5m-4.61-17.5s-8.6 10.49 0 17.5m11.72-16.76s4.61-.55 4 3.65c0 0-1.36 4.49 3.1 4.16-4.46-.34-3.1 4.16-3.1 4.16.58 4.19-4 3.65-4 3.65M78.15 30.53s-4.61-.54-4 3.65c0 0 1.36 4.5-3.11 4.16 4.47-.34 3.11 4.16 3.11 4.16-.58 4.19 4 3.65 4 3.65"/></g><path class="cls-6" d="M27.94 32.71l-8.78 5.9 8.78 5.8"/></g></g></svg>