<svg xmlns="http://www.w3.org/2000/svg" xmlns:xlink="http://www.w3.org/1999/xlink" viewBox="0 0 640.8 480"><style>.st0{clip-path:url(#SVGID_00000073680035180908994490000014153721163957539470_)}.st1{fill:#c3c3c2}.st2{fill:#ffd800}</style><g id="Layer_1"><defs><path id="SVGID_1_" d="M46.3 0h564v480h-564z"/></defs><clipPath id="SVGID_00000158721500471183975840000005323003693502023816_"><use xlink:href="#SVGID_1_" overflow="visible"/></clipPath><path d="M603.27 385.24H53.33c-4.14 0-7.03-3.31-7.03-7.03V7.03C46.3 3.31 49.61 0 53.33 0h549.52c4.14 0 7.03 3.31 7.03 7.03V378.2c.42 3.73-2.89 7.04-6.61 7.04M60.78 371.17h535.45V14.48H60.78v356.69z" clip-path="url(#SVGID_00000158721500471183975840000005323003693502023816_)"/><path d="M572.23 354.62H85.61c-4.14 0-7.03-3.31-7.03-7.03V40.55c0-4.14 3.31-7.03 7.03-7.03h487.03c4.14 0 7.04 3.31 7.04 7.03v306.62c0 4.14-3.31 7.45-7.45 7.45M92.64 340.14H565.2V47.59H92.64v292.55zM453.06 480h-237.1c-4.14 0-7.03-3.31-7.03-7.03s3.31-7.03 7.03-7.03h237.1c4.14 0 7.03 3.31 7.03 7.03s-3.31 7.03-7.03 7.03" clip-path="url(#SVGID_00000158721500471183975840000005323003693502023816_)"/><path d="M391.41 480H277.2c-2.07 0-4.14-.83-5.38-2.48s-2.07-3.72-1.66-5.79l14.48-94.76c.41-3.31 3.72-6.21 7.03-6.21h84.83c3.72 0 6.62 2.48 7.03 6.21l14.48 94.76c.41 2.07-.41 4.14-1.66 5.79-.81 1.65-2.87 2.48-4.94 2.48m-105.94-14.48h97.66l-12.41-80.28h-72.83l-12.42 80.28z" clip-path="url(#SVGID_00000158721500471183975840000005323003693502023816_)"/></g><g id="Layer_2"><path d="M366.99 254.9H264.37c-4.14 0-7.03-3.31-7.03-7.03V105.1c0-4.14 3.31-7.03 7.03-7.03h102.62c4.14 0 7.03 3.31 7.03 7.03v142.34c0 4.15-3.31 7.46-7.03 7.46m-95.59-14.49h88.55V112.14H271.4v128.27z"/><path class="st1" d="M264.37 105.1h102.62v142.34H264.37z"/><path d="M513.89 170.07H406.71c-4.14 0-7.03-3.31-7.03-7.03V105.1c0-4.14 3.31-7.03 7.03-7.03h107.17c4.14 0 7.03 3.31 7.03 7.03v57.52c.01 4.14-3.3 7.45-7.02 7.45m-100.14-14.48h92.69v-43.45h-92.69v43.45z"/><path class="st2" d="M406.71 105.1h107.17v57.52H406.71z"/><path d="M225.06 254.9h-81.1c-4.14 0-7.03-3.31-7.03-7.03v-57.93c0-4.14 3.31-7.03 7.03-7.03h81.1c4.14 0 7.03 3.31 7.03 7.03v57.52c.42 4.13-2.89 7.44-7.03 7.44m-73.66-14.49h66.62v-43.45H151.4v43.45z"/><path class="st2" d="M143.96 189.93h81.1v57.52h-81.1z"/><path d="M225.06 112.96h-81.1c-4.14 0-7.03-3.31-7.03-7.03 0-4.14 3.31-7.03 7.03-7.03h81.1c4.14 0 7.03 3.31 7.03 7.03s-2.89 7.03-7.03 7.03m288.83 182.49H142.3c-4.14 0-7.03-3.31-7.03-7.03 0-4.14 3.31-7.04 7.03-7.04h371.59c4.14 0 7.03 3.31 7.03 7.04.41 3.72-2.9 7.03-7.03 7.03M225.06 154.76h-81.1c-4.14 0-7.03-3.31-7.03-7.03 0-4.14 3.31-7.04 7.03-7.04h81.1c4.14 0 7.03 3.31 7.03 7.04 0 3.72-3.31 7.03-7.03 7.03m288.83 57.93H406.71c-4.14 0-7.03-3.31-7.03-7.03 0-3.73 3.31-7.04 7.03-7.04h107.17c4.14 0 7.03 3.31 7.03 7.04.01 3.72-2.89 7.03-7.02 7.03m0 42.2H406.71c-4.14 0-7.03-3.31-7.03-7.03 0-4.14 3.31-7.03 7.03-7.03h107.17c4.14 0 7.03 3.31 7.03 7.03.01 3.72-3.3 7.03-7.02 7.03"/></g></svg>